<?xml version="1.0" standalone="no"?>
<!DOCTYPE svg PUBLIC "-//W3C//DTD SVG 20010904//EN"
 "http://www.w3.org/TR/2001/REC-SVG-20010904/DTD/svg10.dtd">
<svg version="1.0" xmlns="http://www.w3.org/2000/svg"
 width="400.000000pt" height="335.000000pt" viewBox="0 0 400.000000 335.000000"
 preserveAspectRatio="xMidYMid meet">

<g transform="translate(0.000000,335.000000) scale(0.100000,-0.100000)"
fill="#000000" stroke="none">
<path d="M3410 3276 c-144 -54 -225 -97 -420 -225 -30 -20 -69 -47 -86 -61
-17 -14 -67 -53 -111 -87 -44 -35 -86 -70 -93 -78 -10 -12 -39 -15 -147 -15
-233 0 -361 -42 -485 -159 l-68 -63 -68 63 c-132 125 -267 165 -516 156 -218
-8 -421 -58 -707 -172 l-111 -45 -262 0 c-242 0 -264 -1 -279 -18 -16 -17 -17
-113 -17 -1175 l0 -1156 22 -15 c20 -14 117 -16 846 -16 l824 0 31 -32 c59
-58 118 -78 237 -78 119 0 178 20 237 78 l31 32 824 0 c729 0 826 2 846 16
l22 15 0 1158 c0 1109 -1 1159 -18 1174 -16 15 -47 17 -219 17 l-200 0 -13 57
c-17 78 -14 218 9 401 23 178 18 206 -35 228 -18 8 -35 14 -36 14 -2 -1 -19
-7 -38 -14z m-1757 -585 c122 -32 196 -79 259 -165 l28 -39 0 -279 c0 -176 -4
-287 -10 -299 -10 -17 -19 -7 -83 87 -95 139 -143 213 -165 248 -32 54 -66 89
-99 102 -29 13 -39 12 -100 -11 -38 -14 -102 -42 -143 -62 -41 -20 -106 -50
-145 -68 -111 -52 -194 -90 -286 -134 -48 -23 -91 -41 -97 -41 -6 0 -27 -14
-47 -31 -46 -41 -48 -87 -6 -130 16 -16 36 -29 44 -29 45 0 389 -161 467 -219
14 -10 43 -28 65 -40 22 -12 65 -40 95 -62 30 -21 73 -51 95 -66 57 -38 232
-180 315 -257 20 -18 50 -43 68 -56 l32 -24 0 -207 0 -208 -32 30 c-48 44
-162 97 -246 114 -260 54 -716 -41 -1178 -246 -62 -27 -115 -49 -118 -49 -3 0
-6 409 -6 908 l0 909 100 47 c294 138 545 229 735 264 61 12 119 23 130 25 11
3 72 5 136 6 85 1 136 -4 192 -18z m831 -73 c-95 -99 -203 -223 -269 -307 -22
-28 -49 -62 -60 -74 -12 -12 -39 -49 -60 -81 l-40 -60 -3 170 c-2 101 1 184 8
206 14 49 96 137 159 171 71 39 182 66 275 66 l79 1 -89 -92z m-2114 -132 c0
-3 -4 -8 -10 -11 -5 -3 -10 -1 -10 4 0 6 5 11 10 11 6 0 10 -2 10 -4z m3280
-6 c0 -5 -2 -10 -4 -10 -3 0 -8 5 -11 10 -3 6 -1 10 4 10 6 0 11 -4 11 -10z
m-45 -97 l35 -17 0 -908 c0 -499 -3 -908 -6 -908 -3 0 -56 22 -118 49 -462
205 -918 300 -1178 246 -87 -18 -199 -71 -250 -118 l-38 -35 0 235 c0 226 1
235 23 266 77 110 325 372 510 538 140 127 145 132 202 178 95 77 110 89 145
119 19 16 51 40 71 53 20 13 62 42 93 64 145 100 291 176 384 200 31 8 64 24
72 34 18 25 13 24 55 4z m-2177 -1630 c-10 -2 -26 -2 -35 0 -10 3 -2 5 17 5
19 0 27 -2 18 -5z m159 1 c-3 -3 -12 -4 -19 -1 -8 3 -5 6 6 6 11 1 17 -2 13
-5z m850 0 c-3 -3 -12 -4 -19 -1 -8 3 -5 6 6 6 11 1 17 -2 13 -5z m171 -1
c-10 -2 -26 -2 -35 0 -10 3 -2 5 17 5 19 0 27 -2 18 -5z"/>
</g>
</svg>
