<?xml version="1.0" standalone="no"?>
<!DOCTYPE svg PUBLIC "-//W3C//DTD SVG 20010904//EN"
 "http://www.w3.org/TR/2001/REC-SVG-20010904/DTD/svg10.dtd">
<svg version="1.0" xmlns="http://www.w3.org/2000/svg"
 width="400.000000pt" height="335.000000pt" viewBox="0 0 400.000000 335.000000"
 preserveAspectRatio="xMidYMid meet">

<g transform="translate(0.000000,335.000000) scale(0.100000,-0.100000)"
fill="#000000" stroke="none">
<path d="M3410 3276 c-144 -54 -225 -97 -420 -225 -30 -20 -69 -47 -86 -61
-17 -14 -67 -53 -111 -87 -44 -35 -86 -70 -93 -78 -10 -12 -39 -15 -147 -15
-233 0 -361 -42 -485 -159 l-68 -63 -68 63 c-132 125 -267 165 -516 156 -218
-8 -421 -58 -707 -172 l-111 -45 -259 0 c-246 0 -260 -1 -279 -20 -20 -20 -20
-33 -20 -1168 0 -1100 1 -1150 18 -1165 17 -16 90 -17 841 -17 l823 0 49 -44
c64 -57 120 -76 229 -76 109 0 165 19 229 76 l49 44 824 0 c786 0 826 1 841
18 16 17 17 112 17 1165 0 1134 0 1147 -20 1167 -19 19 -33 20 -218 20 l-199
0 -13 57 c-17 78 -14 218 9 401 23 178 18 206 -35 228 -18 8 -35 14 -36 14 -2
-1 -19 -7 -38 -14z m44 -108 c-3 -24 -12 -83 -20 -133 -23 -145 -28 -282 -14
-363 6 -40 9 -76 5 -80 -3 -3 -25 1 -48 10 -197 75 -336 124 -435 150 -64 17
-126 34 -136 37 -41 15 284 243 504 353 74 37 138 68 143 68 4 0 4 -19 1 -42z
m-1801 -477 c122 -32 196 -79 259 -165 l28 -39 0 -279 c0 -176 -4 -287 -10
-299 -10 -17 -19 -7 -83 87 -95 139 -143 213 -165 248 -32 54 -66 89 -99 102
-29 13 -39 12 -100 -11 -38 -14 -102 -42 -143 -62 -41 -20 -106 -50 -145 -68
-111 -52 -194 -90 -286 -134 -48 -23 -91 -41 -97 -41 -6 0 -27 -14 -47 -31
-46 -41 -48 -87 -6 -130 16 -16 36 -29 44 -29 45 0 389 -161 467 -219 14 -10
43 -28 65 -40 22 -12 65 -40 95 -62 30 -21 73 -51 95 -66 56 -37 192 -148 330
-269 28 -24 58 -49 68 -56 16 -12 18 -37 24 -221 3 -114 3 -207 -2 -207 -4 0
-22 13 -41 29 -232 204 -733 161 -1387 -119 l-157 -68 2 914 3 914 115 54
c276 130 527 219 715 254 61 12 119 23 130 25 11 3 72 5 136 6 85 1 136 -4
192 -18z m831 -73 c-95 -99 -203 -223 -269 -307 -22 -28 -49 -62 -60 -74 -12
-12 -39 -49 -60 -81 l-40 -60 -3 170 c-2 101 1 184 8 206 14 49 96 137 159
171 71 39 182 66 275 66 l79 1 -89 -92z m336 58 c179 -38 345 -94 567 -193
l103 -45 -79 -28 c-310 -107 -874 -557 -1288 -1028 l-73 -82 0 324 0 323 74
104 c198 281 523 649 571 649 5 0 62 -11 125 -24z m-2440 -191 c0 -2 -19 -13
-43 -23 -85 -38 -77 67 -77 -1029 0 -895 1 -978 17 -995 15 -17 82 -18 1721
-18 1573 0 1707 1 1724 17 17 15 18 59 18 989 0 535 -3 980 -6 989 -4 9 -28
27 -55 41 -27 13 -49 27 -49 29 0 3 52 5 115 5 l115 0 0 -1090 0 -1090 -820 0
-820 0 -18 -30 c-82 -134 -361 -130 -412 6 l-10 24 -820 0 -820 0 0 1090 0
1090 120 0 c66 0 120 -2 120 -5z m3225 -102 l35 -17 0 -912 0 -912 -157 68
c-661 283 -1161 324 -1393 114 -21 -19 -41 -34 -45 -34 -5 0 -5 106 -1 236 7
267 -2 235 110 369 79 95 304 323 429 436 140 127 145 132 202 178 95 77 110
89 145 119 19 16 51 40 71 53 20 13 62 42 93 64 145 100 291 176 384 200 31 8
64 24 72 34 18 25 13 24 55 4z m-1930 -280 c217 -324 247 -366 256 -351 5 7 9
-108 9 -262 l0 -274 -42 40 c-118 113 -376 308 -540 410 -139 86 -343 189
-443 224 -49 17 -93 34 -97 38 -4 4 149 79 339 167 190 88 355 165 367 172 11
6 24 11 27 12 3 1 59 -79 124 -176z m20 -1366 c91 -30 156 -76 203 -145 23
-35 40 -68 36 -73 -6 -11 -1384 -12 -1384 -1 0 13 362 142 505 179 197 50 289
63 445 59 98 -2 161 -8 195 -19z m1025 8 c182 -30 355 -81 652 -191 43 -16 78
-32 78 -36 0 -11 -1378 -10 -1384 1 -8 13 68 125 100 148 49 35 112 63 172 77
77 19 266 19 382 1z"/>
</g>
</svg>
