<?xml version="1.0" standalone="no"?>
<!DOCTYPE svg PUBLIC "-//W3C//DTD SVG 20010904//EN"
 "http://www.w3.org/TR/2001/REC-SVG-20010904/DTD/svg10.dtd">
<svg version="1.0" xmlns="http://www.w3.org/2000/svg"
 width="400.000000pt" height="335.000000pt" viewBox="0 0 400.000000 335.000000"
 preserveAspectRatio="xMidYMid meet">

<g transform="translate(0.000000,335.000000) scale(0.100000,-0.100000)"
fill="#000000" stroke="none">
<path d="M1225 3061 c-157 -28 -352 -88 -543 -167 l-82 -34 -264 0 c-242 0
-264 -1 -279 -18 -16 -17 -17 -113 -17 -1175 l0 -1156 22 -15 c20 -14 117 -16
846 -16 l824 0 31 -32 c59 -58 118 -78 237 -78 119 0 178 20 237 78 l31 32
824 0 c729 0 826 2 846 16 l22 15 0 1158 c0 1109 -1 1159 -18 1174 -16 15 -51
17 -279 17 l-261 0 -111 45 c-286 114 -489 164 -707 172 -249 9 -384 -31 -516
-156 l-68 -63 -68 63 c-124 117 -254 160 -479 158 -75 0 -170 -8 -228 -18z
m428 -100 c122 -32 196 -79 259 -165 l28 -39 0 -893 0 -893 -32 30 c-48 44
-162 97 -246 114 -260 54 -716 -41 -1178 -246 -62 -27 -115 -49 -118 -49 -3 0
-6 409 -6 908 l0 909 100 47 c294 138 545 229 735 264 61 12 119 23 130 25 11
3 72 5 136 6 85 1 136 -4 192 -18z m1170 -15 c201 -43 431 -127 717 -262 l100
-47 0 -909 c0 -499 -3 -908 -6 -908 -3 0 -56 22 -118 49 -462 205 -918 300
-1178 246 -87 -18 -199 -71 -250 -118 l-38 -35 0 881 c0 866 0 881 20 923 25
50 101 124 160 154 23 12 74 30 113 41 103 27 316 21 480 -15z m-2453 -190 c0
-3 -4 -8 -10 -11 -5 -3 -10 -1 -10 4 0 6 5 11 10 11 6 0 10 -2 10 -4z m3280
-6 c0 -5 -2 -10 -4 -10 -3 0 -8 5 -11 10 -3 6 -1 10 4 10 6 0 11 -4 11 -10z
m-2222 -1727 c-10 -2 -26 -2 -35 0 -10 3 -2 5 17 5 19 0 27 -2 18 -5z m159 1
c-3 -3 -12 -4 -19 -1 -8 3 -5 6 6 6 11 1 17 -2 13 -5z m850 0 c-3 -3 -12 -4
-19 -1 -8 3 -5 6 6 6 11 1 17 -2 13 -5z m171 -1 c-10 -2 -26 -2 -35 0 -10 3
-2 5 17 5 19 0 27 -2 18 -5z"/>
</g>
</svg>
