<?xml version="1.0" standalone="no"?>
<!DOCTYPE svg PUBLIC "-//W3C//DTD SVG 20010904//EN"
 "http://www.w3.org/TR/2001/REC-SVG-20010904/DTD/svg10.dtd">
<svg version="1.0" xmlns="http://www.w3.org/2000/svg"
 width="400.000000pt" height="335.000000pt" viewBox="0 0 400.000000 335.000000"
 preserveAspectRatio="xMidYMid meet">

<g transform="translate(0.000000,335.000000) scale(0.100000,-0.100000)"
fill="#000000" stroke="none">
<path d="M1266 3065 c-163 -27 -380 -91 -574 -171 l-82 -34 -265 0 c-252 0
-266 -1 -285 -20 -20 -20 -20 -33 -20 -1168 0 -1100 1 -1150 18 -1165 17 -16
90 -17 841 -17 l823 0 49 -44 c64 -57 120 -76 229 -76 109 0 165 19 229 76
l49 44 824 0 c786 0 826 1 841 18 16 17 17 112 17 1165 0 1134 0 1147 -20
1167 -19 19 -33 20 -284 20 l-263 0 -124 49 c-149 59 -321 113 -461 143 -82
17 -137 22 -268 22 -156 1 -170 -1 -254 -28 -99 -33 -189 -88 -239 -147 -19
-21 -40 -39 -47 -39 -7 0 -28 18 -47 39 -49 58 -139 114 -234 145 -73 25 -103
29 -224 32 -90 2 -171 -2 -229 -11z m424 -111 c112 -35 198 -102 244 -191 14
-29 16 -115 16 -913 0 -484 -3 -880 -6 -880 -4 0 -21 13 -40 29 -232 204 -733
161 -1386 -119 l-158 -68 0 913 0 913 88 42 c346 168 652 270 898 300 106 13
257 1 344 -26z m1110 0 c206 -41 469 -137 753 -274 l87 -42 0 -913 0 -913
-157 68 c-661 283 -1161 324 -1393 114 -21 -19 -40 -34 -44 -34 -3 0 -6 393
-6 873 0 838 1 874 20 914 96 212 354 284 740 207z m-2420 -199 c0 -2 -19 -13
-43 -23 -85 -38 -77 67 -77 -1029 0 -895 1 -978 17 -995 15 -17 82 -18 1721
-18 1573 0 1707 1 1724 17 17 15 18 59 18 990 0 603 -4 981 -10 992 -5 10 -32
28 -60 40 -27 12 -50 24 -50 26 0 3 54 5 120 5 l120 0 0 -1090 0 -1090 -820 0
-820 0 -18 -30 c-82 -134 -361 -130 -412 6 l-10 24 -820 0 -820 0 0 1090 0
1090 120 0 c66 0 120 -2 120 -5z m1315 -1748 c91 -30 156 -76 203 -145 23 -35
40 -68 36 -73 -6 -11 -1384 -12 -1384 -1 0 13 362 142 505 179 197 50 289 63
445 59 98 -2 161 -8 195 -19z m1025 8 c182 -30 355 -81 652 -191 43 -16 78
-32 78 -36 0 -11 -1378 -10 -1384 1 -8 13 68 125 100 148 49 35 112 63 172 77
77 19 266 19 382 1z"/>
</g>
</svg>
