<?xml version="1.0" standalone="no"?>
<!DOCTYPE svg PUBLIC "-//W3C//DTD SVG 20010904//EN"
 "http://www.w3.org/TR/2001/REC-SVG-20010904/DTD/svg10.dtd">
<svg version="1.0" xmlns="http://www.w3.org/2000/svg"
 width="200.000000pt" height="200.000000pt" viewBox="0 0 200.000000 200.000000"
 preserveAspectRatio="xMidYMid meet">

<g transform="translate(0.000000,200.000000) scale(0.100000,-0.100000)"
fill="#000000" stroke="none">
<path d="M775 1848 c-26 -15 -35 -28 -35 -55 l0 -23 -182 0 c-101 0 -188 -4
-194 -8 -37 -24 -36 -91 1 -106 22 -8 1248 -8 1270 0 37 15 38 82 1 106 -6 4
-93 8 -193 8 l-183 0 0 23 c0 28 -9 41 -37 56 -30 15 -420 15 -448 -1z"/>
<path d="M349 1519 c-17 -17 -19 -28 -14 -72 3 -29 37 -325 74 -659 57 -512
71 -611 86 -628 18 -20 30 -20 505 -20 475 0 487 0 505 20 15 17 29 116 86
628 37 334 71 630 74 659 5 44 3 55 -14 72 -21 21 -28 21 -651 21 -623 0 -630
0 -651 -21z m1181 -127 c0 -16 -27 -271 -60 -567 -33 -296 -60 -542 -60 -547
0 -4 -184 -8 -410 -8 -226 0 -410 4 -410 8 0 5 -27 251 -60 547 -33 296 -60
551 -60 567 l0 28 530 0 530 0 0 -28z"/>
<path d="M956 1262 c-15 -17 -16 -58 -14 -428 l3 -408 28 -16 c24 -13 30 -13
55 0 l27 16 3 408 c2 370 1 411 -14 428 -10 10 -29 18 -44 18 -15 0 -34 -8
-44 -18z"/>
<path d="M665 1157 c-14 -22 -13 -51 12 -317 29 -316 36 -340 89 -340 26 0 64
32 64 53 0 6 -13 144 -29 306 -24 252 -31 296 -47 308 -29 21 -71 16 -89 -10z"/>
<path d="M1246 1167 c-16 -12 -23 -56 -47 -308 -16 -162 -29 -300 -29 -306 0
-21 38 -53 64 -53 53 0 60 24 89 340 25 266 26 295 12 317 -18 26 -60 31 -89
10z"/>
</g>
</svg>
